# xmcd
#
# Track frame offsets: 
#        150
#        16473
#        30895
#        44715
#        53837
#        66428
#        84993
#        120474
#        148378
#        167097
#        181318
#        238199
#        258869
#        287942
#        316652
#        331619
#
# Disc length: 4656 seconds
#
# Revision: 0
# Processed by: cddbd v1.4PL0 Copyright (c) Steve Scherf et al.
# Submitted via: ExactAudioCopy v0.90a11
#
DISCID=de122e10
DTITLE=Breakout - "Blues" and " Ogien"
DYEAR=1900
DGENRE=
TTITLE0=Ona poszla inna droga
TTITLE1=Kiedy bylem malym chlopcem
TTITLE2=Oni zaraz przyjda tu
TTITLE3=Przyszla do mnie bieda
TTITLE4=Pomaluj moje sny
TTITLE5=Usta me ogrzej
TTITLE6=Gdbym byl wichrem
TTITLE7=Co stalo sie kwiatom
TTITLE8=Dzisiejszej nocy
TTITLE9=Nie zapalaj swiatla
TTITLE10=Wielki ogien
TTITLE11=Liscie zabral wiatr
TTITLE12=Na dnie mych oczu
TTITLE13=Masz to dzis
TTITLE14=Czarno-czarny film
TTITLE15=Dales mi pierscien
EXTD=
EXTT0=
EXTT1=
EXTT2=
EXTT3=
EXTT4=
EXTT5=
EXTT6=
EXTT7=
EXTT8=
EXTT9=
EXTT10=
EXTT11=
EXTT12=
EXTT13=
EXTT14=
EXTT15=
PLAYORDER=
